<?xml version="1.0" standalone="no"?>
<!DOCTYPE svg PUBLIC "-//W3C//DTD SVG 20010904//EN"
 "http://www.w3.org/TR/2001/REC-SVG-20010904/DTD/svg10.dtd">
<svg version="1.0" xmlns="http://www.w3.org/2000/svg"
 width="652.000000pt" height="652.000000pt" viewBox="0 0 652.000000 652.000000"
 preserveAspectRatio="xMidYMid meet">

<g transform="translate(0.000000,652.000000) scale(0.100000,-0.100000)"
fill="#000000" stroke="none">
<path d="M2078 6033 c-3 -4 -3 -53 0 -108 l4 -101 80 -13 c315 -49 605 -238
784 -512 166 -254 142 -741 -48 -994 -64 -84 -146 -152 -242 -199 -111 -55
-208 -76 -410 -89 l-178 -11 6 -35 c3 -20 6 -68 6 -107 l0 -72 73 -7 c120 -12
205 -74 287 -210 24 -38 80 -122 125 -185 46 -63 118 -176 160 -250 43 -74
112 -184 155 -245 43 -60 130 -191 195 -290 147 -227 166 -255 416 -620 113
-165 247 -365 299 -445 127 -198 353 -513 414 -578 100 -107 274 -211 456
-273 81 -27 206 -29 395 -4 185 24 245 53 245 119 0 31 -33 41 -163 50 -111 8
-165 29 -269 104 -123 89 -212 193 -457 537 -207 289 -519 747 -885 1295 -163
245 -358 536 -434 647 -132 194 -322 495 -322 511 0 4 31 22 69 39 241 113
496 365 600 595 55 119 66 178 65 343 -3 419 -108 665 -362 848 -145 105 -294
169 -477 206 -182 37 -577 74 -587 54z"/>
<path d="M4793 6000 c-31 -13 -30 -53 2 -78 13 -11 53 -30 87 -43 156 -58 262
-138 308 -233 47 -98 49 -123 54 -810 5 -690 5 -693 -41 -711 -10 -3 -291 -9
-625 -12 l-608 -6 0 -114 0 -113 198 -2 c108 -1 373 -2 587 -2 481 -1 459 4
468 -112 4 -44 7 -396 7 -784 1 -765 1 -758 -55 -856 -51 -88 -167 -167 -264
-180 -79 -10 -116 -68 -71 -109 20 -18 31 -18 298 -5 349 19 774 15 890 -7
131 -24 212 -3 212 55 0 44 -13 53 -101 68 -151 26 -242 53 -279 82 -57 46
-108 129 -132 217 l-23 80 2 1595 c1 1162 4 1613 13 1660 31 177 139 290 276
290 60 0 113 30 129 74 8 24 6 31 -14 47 -28 23 -66 24 -186 4 -119 -20 -466
-20 -650 0 -153 16 -447 19 -482 5z"/>
<path d="M2478 1236 c-87 -24 -152 -85 -184 -173 -21 -59 -18 -173 7 -237 24
-65 96 -136 157 -154 56 -17 139 -15 193 5 l47 16 44 -36 45 -37 21 29 21 29
-40 31 -39 32 19 27 c50 71 65 193 35 291 -39 132 -191 215 -326 177z m139
-67 c40 -15 82 -57 104 -104 31 -68 23 -191 -17 -259 -12 -19 -13 -19 -47 7
l-34 26 -24 -25 -24 -26 29 -23 c31 -25 28 -29 -26 -39 -79 -14 -164 32 -199
109 -25 55 -25 175 0 231 42 93 146 138 238 103z"/>
<path d="M511 1218 c-5 -13 -50 -131 -101 -263 -51 -132 -96 -250 -101 -263
-9 -22 -7 -23 33 -20 38 3 42 6 55 43 7 22 20 59 29 83 l16 42 117 0 118 0 32
-85 33 -85 39 0 c21 0 39 3 39 8 0 11 -212 536 -223 550 -5 6 -25 12 -43 12
-26 0 -37 -5 -43 -22z m98 -193 c22 -61 41 -114 41 -118 0 -4 -43 -7 -95 -7
l-94 0 23 63 c12 34 33 90 46 125 13 35 26 60 30 55 4 -4 26 -58 49 -118z"/>
<path d="M928 1234 c-4 -3 -7 -132 -8 -285 l-1 -279 41 0 40 0 0 125 0 125
135 0 135 0 0 35 0 35 -135 0 -135 0 0 90 0 90 155 0 155 0 0 34 0 34 -188 2
c-103 0 -191 -2 -194 -6z"/>
<path d="M1453 1234 c-10 -4 -13 -71 -13 -285 l0 -279 40 0 40 0 0 121 0 121
96 -4 c95 -3 96 -3 128 -39 21 -23 43 -65 60 -117 l28 -82 39 0 c46 0 47 -7
-3 122 -19 51 -40 86 -61 105 l-32 28 40 20 c77 39 103 143 55 221 -36 57 -72
67 -250 71 -85 1 -161 0 -167 -3z m324 -84 c57 -34 53 -127 -7 -157 -16 -8
-67 -13 -137 -13 l-113 0 0 95 0 95 113 0 c93 0 117 -3 144 -20z"/>
<path d="M2060 956 l0 -286 40 0 41 0 -3 283 -3 282 -37 3 -38 3 0 -285z"/>
<path d="M2957 1234 c-11 -12 -8 -368 4 -425 14 -66 65 -124 123 -140 22 -6
76 -9 118 -7 61 4 85 10 116 30 70 47 77 73 80 326 l3 223 -38 -3 -38 -3 -2
-195 c-3 -229 -5 -249 -39 -281 -33 -31 -144 -40 -192 -15 -53 27 -57 43 -62
276 l-5 215 -30 3 c-17 2 -34 0 -38 -4z"/>
<path d="M3560 954 l0 -284 210 0 210 0 0 36 c0 31 -3 35 -22 34 -13 -1 -89
-2 -170 -1 l-148 1 0 95 0 95 156 0 155 0 -3 33 -3 32 -152 3 -153 3 0 84 0
85 165 0 165 0 0 35 0 35 -205 0 -205 -1 0 -285z"/>
</g>
</svg>
